<?xml version="1.0" encoding="utf-8"?>
<!-- Generator: Adobe Illustrator 15.1.0, SVG Export Plug-In . SVG Version: 6.00 Build 0)  -->
<svg version="1.2" baseProfile="tiny" id="Layer_1" xmlns="http://www.w3.org/2000/svg" xmlns:xlink="http://www.w3.org/1999/xlink"
	 x="0px" y="0px" width="260.014px" height="402.36px" viewBox="0 0 260.014 402.36" overflow="inherit" xml:space="preserve">
<g>
	<path fill="#00708F" d="M217.755,186.501c-2.54-6.212-6.023-11.952-10.259-17.039c-0.758,2.604-1.389,5.257-1.879,7.956
		c0.7,4.68,1.072,9.463,1.072,14.333c0.008,4.868-0.362,9.659-1.062,14.339c1.512,8.266,4.314,16.076,8.184,23.23
		c0.169-0.137,0.332-0.273,0.501-0.422c2.994-8.604,4.978-17.703,5.811-27.114C219.677,196.58,218.883,191.474,217.755,186.501z"/>
	<path fill="#0089B8" d="M259.294,116.29c-4.253,1.371-8.358,3.088-12.253,5.112c-1.41,0.736-2.796,1.513-4.154,2.328
		s-2.689,1.67-3.994,2.565c-3.857,2.637-7.469,5.604-10.795,8.863c-5.543,5.43-10.29,11.667-14.052,18.521
		c12.582,12.405,21.115,28.896,23.446,47.314c0.075,0.595,0.145,1.191,0.206,1.79c5.033-7.426,9.324-15.402,12.758-23.825
		c1.031-6.534,2.856-12.814,5.36-18.737c0.424-0.995,0.865-1.978,1.322-2.951c-0.002,0.008-0.003,0.015-0.005,0.022
		c0.003-0.008,0.007-0.015,0.01-0.022c1.448-6.794,2.37-13.777,2.714-20.929c0.098-2.12,0.156-4.251,0.156-6.392
		C260.014,125.337,259.758,120.775,259.294,116.29z"/>
	<path fill="#00B8EC" d="M255.816,160.221c-2.504,5.923-4.329,12.203-5.36,18.737c2.318-5.678,4.237-11.581,5.744-17.639
		c0.33-1.323,0.639-2.673,0.934-4.027C256.676,158.258,256.237,159.233,255.816,160.221z"/>
	<path fill="#008686" d="M253.826,90.319c-7.498,5.665-14.346,12.131-20.424,19.288c-0.55,0.646-1.093,1.3-1.631,1.959
		c-0.656,0.806-1.306,1.619-1.94,2.443l-0.001,0c-0.001,0-0.002-0.001-0.002-0.002c0,0.001-0.001,0.002-0.002,0.003
		c-7.716,9.95-13.983,21.082-18.486,33.065c0.912,2.121,1.767,4.272,2.551,6.451c0.08,0.215,0.093,0.26,0.093,0.26h0.004
		c3.762-6.854,8.567-13.198,14.11-18.628c3.326-3.259,6.938-6.227,10.795-8.863c1.304-0.895,2.636-1.75,3.994-2.565
		s2.743-1.592,4.154-2.328c3.895-2.024,8-3.741,12.253-5.112C258.347,107.329,256.496,98.644,253.826,90.319z"/>
	<linearGradient id="SVGID_1_" gradientUnits="userSpaceOnUse" x1="141.1299" y1="142.5693" x2="235.1459" y2="114.4794">
		<stop  offset="0" style="stop-color:#FFFFFF"/>
		<stop  offset="1" style="stop-color:#00817D"/>
	</linearGradient>
	<path fill="url(#SVGID_1_)" d="M252.421,86.171c-0.257-0.696-0.51-1.4-0.771-2.087c-0.457,0.124-0.923,0.26-1.379,0.395
		c-0.029,0.008-0.06,0.017-0.089,0.026c0,0,0,0,0,0c-0.001,0-0.001,0-0.002,0c-11.543,3.398-22.317,8.608-31.984,15.298
		c-0.29,0.207-0.592,0.42-0.888,0.634c-0.001,0-0.002-0.001-0.003-0.002c-7.24,5.115-13.847,11.081-19.677,17.732
		c0.385,2.162,0.667,4.358,0.845,6.585c5.094,6.89,9.424,14.367,12.866,22.324c4.503-11.983,10.771-23.115,18.486-33.065
		l-0.019-0.023c0.006,0.007,0.015,0.013,0.021,0.02c0.637-0.823,1.286-1.636,1.943-2.441c0.537-0.659,1.079-1.314,1.629-1.96
		c0.001,0,0.002,0,0.002,0.001c6.078-7.157,12.926-13.625,20.424-19.288C253.387,88.927,252.912,87.548,252.421,86.171z"/>
	<linearGradient id="SVGID_2_" gradientUnits="userSpaceOnUse" x1="135.9893" y1="125.3584" x2="230.0031" y2="97.2691">
		<stop  offset="0" style="stop-color:#FFFFFF"/>
		<stop  offset="1" style="stop-color:#00AEBF"/>
	</linearGradient>
	<path fill="url(#SVGID_2_)" d="M214.653,97.94c-2.037-1.873-4.117-3.682-6.254-5.441c-0.5,0.611-0.987,1.224-1.472,1.836
		c-0.001,0-0.002-0.001-0.003-0.001c0,0,0,0.001-0.001,0.001c-4.039,5.104-7.77,10.471-11.162,16.053
		c0.767,2.535,1.395,5.13,1.867,7.779c5.83-6.651,12.437-12.617,19.677-17.732C216.433,99.592,215.547,98.75,214.653,97.94z"/>
	<linearGradient id="SVGID_3_" gradientUnits="userSpaceOnUse" x1="148.2451" y1="166.3901" x2="242.265" y2="138.299">
		<stop  offset="0" style="stop-color:#FFFFFF"/>
		<stop  offset="1" style="stop-color:#006A6C"/>
	</linearGradient>
	<path fill="url(#SVGID_3_)" d="M197.462,143.333c3.769,4.905,7.145,10.135,10.064,15.641c0.796-2.982,1.7-5.926,2.701-8.818
		c-3.835-3.327-7.989-6.303-12.404-8.874C197.714,141.969,197.592,142.652,197.462,143.333z"/>
	<g>
		<linearGradient id="SVGID_4_" gradientUnits="userSpaceOnUse" x1="144.9053" y1="155.2114" x2="238.926" y2="127.1201">
			<stop  offset="0" style="stop-color:#FFFFFF"/>
			<stop  offset="1" style="stop-color:#006E7A"/>
		</linearGradient>
		<path fill="url(#SVGID_4_)" d="M198.474,124.752c0.147,1.834,0.225,3.689,0.225,5.562c0,3.733-0.302,7.396-0.875,10.968
			c4.417,2.57,8.574,5.546,12.404,8.867c0.356-1.033,0.725-2.055,1.112-3.072C207.897,139.119,203.567,131.642,198.474,124.752z"/>
	</g>
	<linearGradient id="SVGID_5_" gradientUnits="userSpaceOnUse" x1="149.5752" y1="170.8379" x2="243.5933" y2="142.7473">
		<stop  offset="0" style="stop-color:#FFFFFF"/>
		<stop  offset="1" style="stop-color:#006A5C"/>
	</linearGradient>
	<path fill="url(#SVGID_5_)" d="M197.462,143.333c-0.329,1.716-0.722,3.409-1.175,5.076c-0.783,2.877-1.746,5.68-2.881,8.394
		c3.309,2.205,6.402,4.698,9.247,7.443c1.019,0.992,2.009,2.005,2.964,3.046c0.546-2.803,1.187-5.583,1.909-8.318
		C204.606,153.468,201.23,148.237,197.462,143.333z"/>
	<path fill="#00AFCE" d="M231.876,72.919c-0.912-0.492-1.829-0.975-2.752-1.45c-7.543,6.35-14.48,13.389-20.725,21.029
		c2.14,1.759,4.217,3.569,6.254,5.441c0.894,0.811,1.779,1.649,2.652,2.495c0.298-0.212,0.6-0.426,0.891-0.632
		c9.667-6.69,20.441-11.9,31.984-15.298C244.366,80.232,238.258,76.361,231.876,72.919z"/>
	<path fill="#00B3BD" d="M250.183,84.504c0.029-0.009,0.059-0.017,0.089-0.025c0.455-0.137,0.921-0.272,1.379-0.395
		c-2.879-7.597-6.438-14.856-10.623-21.698c-4.113,2.835-8.087,5.873-11.903,9.084c0.923,0.475,1.84,0.958,2.752,1.45
		C238.258,76.361,244.366,80.232,250.183,84.504z"/>
	<path fill="#00BED8" d="M208.399,92.499c6.244-7.64,13.177-14.679,20.725-21.029c-8.422-4.338-17.286-7.937-26.498-10.712
		c-7.01,4.339-13.651,9.229-19.859,14.598C191.899,80.214,200.481,85.971,208.399,92.499z"/>
	<linearGradient id="SVGID_6_" gradientUnits="userSpaceOnUse" x1="131.1875" y1="109.2939" x2="225.2034" y2="81.204">
		<stop  offset="0" style="stop-color:#FFFFFF"/>
		<stop  offset="1" style="stop-color:#00B8D4"/>
	</linearGradient>
	<path fill="url(#SVGID_6_)" d="M208.399,92.499c-7.918-6.528-16.5-12.284-25.633-17.143c-1.373,1.187-2.719,2.412-4.051,3.65
		c8.354,7.941,14.766,17.902,18.463,29.098c3.007-4.765,6.26-9.364,9.745-13.769c-0.12-0.051-0.242-0.097-0.363-0.145
		c0.12,0.044,0.241,0.091,0.364,0.144C207.412,93.72,207.899,93.109,208.399,92.499z"/>
	<linearGradient id="SVGID_7_" gradientUnits="userSpaceOnUse" x1="121.7783" y1="77.7998" x2="215.7949" y2="49.7097">
		<stop  offset="0" style="stop-color:#FFFFFF"/>
		<stop  offset="1" style="stop-color:#00BFE8"/>
	</linearGradient>
	<path fill="url(#SVGID_7_)" d="M181.06,74.461c-17.697-9.14-37.406-14.965-58.268-16.632c-1.515,0.339-3.01,0.691-4.506,1.068
		c1.549,0.982,3.078,1.999,4.593,3.03c0.649,0.441,1.303,0.879,1.945,1.33c1.631-0.122,3.291-0.182,4.958-0.182h0.037
		c17.914,0,34.187,7.027,46.214,18.461c0.394-0.381,0.791-0.759,1.188-1.137c1.811-1.724,3.658-3.413,5.547-5.043
		C182.2,75.054,181.631,74.756,181.06,74.461z"/>
	<path fill="#2FC4EE" d="M157.033,54.085c-11.76,0.007-23.226,1.297-34.242,3.744c20.865,1.667,40.571,7.492,58.268,16.632
		c0.571,0.295,1.141,0.593,1.707,0.895c6.208-5.371,12.85-10.26,19.859-14.598c-14.412-4.337-29.691-6.672-45.528-6.672H157.033z"/>
	<path fill="#85CA9C" d="M169.142,6.04c-21.611,13.12-40.74,29.875-56.548,49.438c1.118,0.637,2.229,1.294,3.325,1.951l0,0
		c0.788,0.484,1.583,0.983,2.366,1.468c1.497-0.377,2.991-0.729,4.506-1.068c11.016-2.446,22.482-3.736,34.242-3.744h0.064
		c15.837,0,31.116,2.334,45.528,6.672c8.673-5.364,17.927-9.889,27.629-13.47C214.47,28.197,193.337,13.696,169.142,6.04z"/>
	<path fill="#C4DF9B" d="M112.594,55.478C128.402,35.915,147.53,19.16,169.142,6.04C156.726,2.113,143.497,0,129.781,0h-0.036
		C95.492,0.018,64.338,13.237,41.108,34.825c24.322,1.037,47.222,7.582,67.472,18.427C109.93,53.975,111.268,54.717,112.594,55.478z
		"/>
	<path fill="#CDE6C7" d="M108.58,53.252c-20.25-10.845-43.151-17.39-67.472-18.427C22.382,52.245,8.79,75.094,2.874,100.861
		C30.626,73.94,68.501,57.355,110.25,57.334h0.076h0.778c0.215-0.272,0.434-0.547,0.653-0.821c0.279-0.349,0.559-0.695,0.836-1.035
		C111.268,54.717,109.93,53.975,108.58,53.252z"/>
	<path fill="#F2F9FA" d="M115.917,57.429h0.001l0,0c-1.096-0.657-2.208-1.314-3.325-1.951c-0.278,0.34-0.558,0.687-0.836,1.035
		c-0.219,0.274-0.438,0.549-0.652,0.821c-1.23,1.563-2.436,3.125-3.621,4.721c3.546-1.17,7.14-2.228,10.8-3.158
		C117.501,58.411,116.707,57.914,115.917,57.429z"/>
	<path fill="#F0F8F3" d="M55.037,91.604c15.241-12.975,33.004-23.101,52.448-29.549c1.183-1.597,2.389-3.158,3.621-4.721h-0.001
		h-0.778h-0.076C68.501,57.355,30.626,73.94,2.874,100.861c-1.31,5.742-2.249,11.616-2.776,17.615
		c8.622-4.024,18.07-6.57,28.022-7.319c0.495-0.485,0.995-0.966,1.499-1.442C37.179,102.571,45.728,96.464,55.037,91.604z"/>
	<path fill="#CDDEEB" d="M81.181,81.866c-0.999,0.236-1.994,0.481-2.982,0.744c-8.116,2.155-15.874,5.194-23.161,8.994
		c-9.31,4.86-17.859,10.967-25.419,18.11c-0.504,0.477-1.003,0.957-1.499,1.442c0.911-0.071,1.83-0.122,2.752-0.161
		c1.127-0.047,2.26-0.073,3.398-0.079h0.032c0.544,0,1.084,0.01,1.625,0.021c0.793,0.015,1.585,0.042,2.373,0.08
		c5.517,0.267,10.887,1.089,16.063,2.402c1.91-1.06,3.859-2.059,5.837-3.01c1.587-0.988,3.204-1.921,4.852-2.814
		c0.644-0.35,1.29-0.694,1.943-1.031c3.634-9.7,9.459-18.341,16.877-25.304C82.971,81.451,82.075,81.655,81.181,81.866z"/>
	<path fill="#C3E5D9" d="M0.1,118.476c-0.034,0.352-0.069,0.724-0.1,1.076c4.454,3.198,8.663,6.705,12.6,10.495
		c4.485-6.848,9.69-13.181,15.521-18.89C18.168,111.906,8.72,114.455,0.1,118.476z"/>
	<path fill="#2FC4EE" d="M38.301,111.018c-0.788-0.038-1.58-0.065-2.373-0.08c-0.54-0.01-1.08-0.021-1.626-0.021h-0.031
		c-1.137,0.006-2.271,0.032-3.398,0.079c-0.922,0.039-1.84,0.09-2.752,0.161c-5.831,5.709-11.036,12.042-15.521,18.89
		c2.098,2.028,4.133,4.139,6.072,6.331c1.156,1.284,2.265,2.606,3.352,3.94c0.56-0.68,1.128-1.352,1.704-2.018
		c8.632-9.989,18.991-18.437,30.633-24.878C49.186,112.106,43.816,111.285,38.301,111.018z"/>
	<path fill="#156B7B" d="M55.296,113.664c-0.308-0.084-0.622-0.165-0.932-0.242c-11.644,6.439-22.003,14.888-30.637,24.877
		c-0.576,0.666-1.144,1.338-1.704,2.018c1.489,1.849,2.922,3.73,4.303,5.669c0.035,0.048,0.071,0.095,0.105,0.143
		C33.458,133.229,43.371,122.12,55.296,113.664z"/>
	<path fill="#065E79" d="M48.328,161.764c3.89-4.85,8.345-9.226,13.259-13.047c-1.576-5.869-2.421-12.037-2.421-18.403
		c0-5.139,0.553-10.148,1.593-14.976c-1.792-0.62-3.61-1.183-5.457-1.674c-0.001,0-0.002,0.001-0.002,0.002
		c-0.001,0-0.002,0-0.003-0.001c-11.924,8.458-21.836,19.563-28.863,32.468c0.565,0.795,1.119,1.599,1.664,2.41
		c3.812,5.679,7.119,11.724,9.863,18.077c0.36,0.831,0.707,1.669,1.047,2.512c0.561,1.388,1.099,2.789,1.605,4.202
		c2.191-4.012,4.721-7.812,7.55-11.363c0.014-0.018,0.027-0.036,0.042-0.054C48.244,161.864,48.287,161.814,48.328,161.764z"/>
	<path fill="#1F9EB7" d="M18.672,136.377c-1.939-2.192-3.974-4.302-6.072-6.331c-2.808,4.287-5.325,8.777-7.54,13.43
		c2.355,2.341,4.581,4.797,6.687,7.371c0.483,0.602,0.967,1.204,1.445,1.814c2.668-4.314,5.616-8.441,8.832-12.345
		C20.937,138.987,19.828,137.662,18.672,136.377z"/>
	<path fill="#105C74" d="M26.327,145.987c-1.381-1.934-2.813-3.82-4.303-5.669c-3.216,3.906-6.164,8.03-8.832,12.345
		c1.146,1.473,2.249,2.98,3.308,4.522c0.008,0.011,0.016,0.022,0.024,0.034c0.027,0.04,0.053,0.081,0.081,0.121
		c1.037,1.515,2.034,3.06,2.987,4.637c1.807-5.52,4.107-10.815,6.84-15.844C26.397,146.083,26.361,146.036,26.327,145.987z"/>
	<path fill="#1D5273" d="M39.007,169.13c-0.34-0.842-0.687-1.681-1.047-2.512c-0.001,0-0.001,0-0.002,0.001c0,0,0-0.001,0-0.001
		c-2.743-6.353-6.049-12.398-9.861-18.077c-0.544-0.811-1.099-1.614-1.664-2.41l-0.001,0.001c0,0,0-0.001,0-0.001
		c-2.733,5.028-5.033,10.323-6.84,15.845c5.506,9.122,9.526,19.224,11.75,29.991c0,0.001,0,0.003,0,0.004l0,0v0.001
		c0.338,1.646,0.637,3.315,0.887,4.996c1.25-6.842,3.375-13.375,6.262-19.479c0.667-1.408,1.373-2.794,2.119-4.156
		C40.104,171.92,39.567,170.519,39.007,169.13z"/>
	<path fill="#0087BA" d="M11.747,150.848c-2.106-2.574-4.332-5.03-6.687-7.371c-0.356,0.76-0.715,1.527-1.054,2.305
		c1.818,3.958,3.486,8.005,4.986,12.142C9.852,155.537,10.767,153.183,11.747,150.848z"/>
	<path fill="#006AA1" d="M11.747,150.848c-0.98,2.335-1.896,4.688-2.755,7.075c0.151,0.428,0.302,0.856,0.455,1.279
		c1.17-2.22,2.425-4.41,3.743-6.54C12.714,152.052,12.23,151.45,11.747,150.848z"/>
	<path fill="#1F5170" d="M16.524,157.218c-0.008-0.012-0.016-0.022-0.024-0.034c-1.06-1.542-2.163-3.049-3.31-4.522
		c-1.318,2.13-2.573,4.32-3.743,6.54c2.506,7.113,4.508,14.439,5.975,21.976c0.735-6.631,2.147-13.051,4.169-19.203
		c-0.953-1.576-1.95-3.122-2.987-4.637C16.577,157.299,16.551,157.258,16.524,157.218z"/>
	<path fill="#4795CB" d="M8.992,157.923c-1.5-4.137-3.168-8.181-4.986-12.142c-0.916,2.034-1.772,4.103-2.56,6.213
		c0.933,5.482,2.212,10.845,3.816,16.074c0.446-1.088,0.918-2.17,1.412-3.229c0.873-1.907,1.796-3.783,2.773-5.638
		C9.294,158.779,9.144,158.351,8.992,157.923z"/>
	<path fill="#4E8BBD" d="M9.447,159.203c-0.977,1.854-1.901,3.73-2.773,5.638c-0.493,1.059-0.964,2.141-1.412,3.229
		c0.071,0.257,0.157,0.512,0.234,0.767c0,0,0.001,0,0.002-0.001c0,0,0,0.001,0,0.001c2.433,7.763,5.574,15.215,9.341,22.277
		c0.031-3.356,0.23-6.675,0.583-9.935C13.955,173.642,11.954,166.315,9.447,159.203z"/>
	<path fill="#176AA7" d="M15.422,181.178c-0.353,3.26-0.551,6.578-0.583,9.935c0.88,1.648,1.795,3.269,2.747,4.87
		c-0.157-1.601-0.34-3.194-0.544-4.781C16.607,187.826,16.07,184.482,15.422,181.178z"/>
	<path fill="#244A6F" d="M32.229,196.971c0-0.001,0-0.002,0-0.003c0,0.001,0,0.002-0.001,0.003c-0.25-1.682-0.548-3.353-0.886-4.999
		v0.001c0-0.001,0-0.001,0-0.001c-2.224-10.771-6.244-20.874-11.75-29.995c0,0,0-0.001,0-0.001c0,0,0,0,0,0
		c-2.021,6.151-3.435,12.571-4.169,19.202c0.648,3.304,1.186,6.647,1.62,10.023c0.204,1.587,0.388,3.182,0.545,4.784
		c0-0.001-0.001-0.002-0.001-0.003c0,0.001,0,0.002,0,0.003c3.63,6.145,7.76,11.959,12.323,17.405
		c0.365,0.447,0.735,0.871,1.113,1.309c-0.051-1.127-0.074-2.258-0.074-3.404C30.938,206.412,31.383,201.616,32.229,196.971z"/>
	<path fill="#005E9F" d="M48.328,161.764c-0.041,0.051-0.084,0.1-0.125,0.151c-0.014,0.018-0.027,0.036-0.042,0.054
		c-2.829,3.552-5.359,7.352-7.55,11.365c2.65,7.409,4.549,15.181,5.603,23.217c0.632,4.822,0.96,9.742,0.962,14.734
		c0,6.127-0.491,12.146-1.428,18.012c7.803,6.586,16.398,12.279,25.622,16.908c-0.921-3.537-1.747-7.135-2.495-10.75
		c-1.63-7.967-2.826-16.092-3.557-24.344c-2.528-5.924-3.924-12.437-3.924-19.288c-0.011-6.846,1.383-13.362,3.902-19.277
		c0.317-3.626,0.726-7.226,1.22-10.796c-2.052-4.132-3.711-8.492-4.931-13.033C56.673,152.538,52.218,156.914,48.328,161.764z"/>
	<path fill="#0A5297" d="M46.214,196.551c-1.054-8.038-2.953-15.81-5.604-23.217c-0.746,1.362-1.453,2.748-2.119,4.156
		c-2.887,6.104-5.012,12.639-6.261,19.481c0.708,4.68,1.078,9.46,1.078,14.324c0,1.947-0.055,3.889-0.17,5.801
		c3.924,4.352,8.137,8.42,12.611,12.201c0.937-5.865,1.427-11.885,1.427-18.018C47.173,206.289,46.846,201.373,46.214,196.551z"/>
	<path fill="#1A4992" d="M32.229,196.971c-0.846,4.645-1.29,9.441-1.282,14.324c0,1.146,0.023,2.277,0.074,3.404
		c0.69,0.811,1.4,1.611,2.116,2.396c0.115-1.912,0.169-3.854,0.169-5.801C33.307,206.432,32.937,201.651,32.229,196.971z"/>
	<path fill="#1F8FBE" d="M65.298,172.546c-2.519,5.918-3.913,12.432-3.902,19.277c0,6.848,1.398,13.364,3.924,19.288
		c-0.569-6.361-0.852-12.799-0.861-19.313C64.458,185.312,64.744,178.887,65.298,172.546z"/>
	<linearGradient id="SVGID_8_" gradientUnits="userSpaceOnUse" x1="77.3062" y1="180.2422" x2="62.4011" y2="218.0779">
		<stop  offset="0" style="stop-color:#97DAF2"/>
		<stop  offset="1" style="stop-color:#00BCE9"/>
	</linearGradient>
	<path fill="url(#SVGID_8_)" d="M71.12,162.399C71.12,162.399,71.12,162.398,71.12,162.399c-1.333-2.397-2.515-4.895-3.553-7.461
		c-0.179,1.049-0.348,2.102-0.512,3.156c-0.741,4.766-1.331,9.585-1.757,14.453c-0.554,6.341-0.84,12.766-0.84,19.252
		c0.009,6.514,0.292,12.952,0.861,19.313c2.876,6.748,7.215,12.723,12.627,17.529c-1.226-5.598-1.873-11.396-1.873-17.361
		c-0.004-6.027,0.656-11.9,1.905-17.553c1.055-4.771,2.529-9.387,4.387-13.801c0.26-0.617,0.526-1.23,0.801-1.84
		C78.423,173.498,74.348,168.214,71.12,162.399z"/>
	<path fill="#00ACE2" d="M77.947,228.641c-5.412-4.807-9.751-10.781-12.627-17.529c0.73,8.252,1.926,16.377,3.557,24.344
		c4.309,3.791,9.18,6.963,14.473,9.354c-0.396-0.867-0.771-1.746-1.137-2.629C80.415,237.842,78.975,233.32,77.947,228.641z"/>
	<linearGradient id="SVGID_9_" gradientUnits="userSpaceOnUse" x1="98.479" y1="188.583" x2="83.5744" y2="226.4174">
		<stop  offset="0" style="stop-color:#B3E2ED"/>
		<stop  offset="1" style="stop-color:#5FC9DF"/>
	</linearGradient>
	<path fill="url(#SVGID_9_)" d="M91.603,211.26c-0.006-7.561,1.286-14.827,3.65-21.591c0.221-0.632,0.448-1.262,0.687-1.885
		c-4.641-2.719-8.932-5.973-12.774-9.696c-0.274,0.608-0.541,1.222-0.8,1.839c-1.858,4.414-3.333,9.028-4.387,13.8
		c-1.25,5.653-1.91,11.526-1.905,17.553c0,5.965,0.647,11.764,1.873,17.361c0.708,0.627,1.435,1.236,2.179,1.824
		c5.208,4.113,11.266,7.209,17.866,8.971C93.901,230.908,91.61,221.352,91.603,211.26z"/>
	<linearGradient id="SVGID_10_" gradientUnits="userSpaceOnUse" x1="107.7173" y1="192.2227" x2="92.8125" y2="230.0574">
		<stop  offset="0" style="stop-color:#DFF1F1"/>
		<stop  offset="1" style="stop-color:#9AD7D9"/>
	</linearGradient>
	<path fill="url(#SVGID_10_)" d="M95.94,187.784c-0.239,0.623-0.466,1.253-0.687,1.885c-2.364,6.765-3.657,14.031-3.65,21.591
		c0.007,10.092,2.298,19.648,6.389,28.176c0.236,0.5,0.485,0.994,0.734,1.488c0.278-0.361,0.553-0.729,0.819-1.1
		c0.371-0.502,0.735-1.012,1.095-1.521c0.079-0.113,0.158-0.227,0.236-0.34c2.708-3.889,5.078-8.029,7.08-12.375
		c1.347-2.924,2.531-5.936,3.526-9.035c1.198-3.729,2.132-7.576,2.781-11.521c0.011-0.066,0.023-0.135,0.034-0.203
		c0.053-0.322,0.102-0.648,0.15-0.973c0.024-0.158,0.048-0.316,0.07-0.475c0.041-0.285,0.08-0.57,0.117-0.855
		c0.027-0.202,0.053-0.405,0.079-0.608c0.032-0.259,0.063-0.519,0.093-0.779c0.027-0.233,0.052-0.468,0.077-0.702
		c0.025-0.237,0.05-0.475,0.073-0.713c0.026-0.267,0.05-0.534,0.073-0.802c0.018-0.212,0.037-0.424,0.054-0.636
		c0.021-0.276,0.041-0.554,0.06-0.83c0.002-0.038,0.006-0.077,0.008-0.115c0.011-0.17,0.024-0.339,0.035-0.509
		c0.03-0.489,0.056-0.979,0.078-1.47C108.367,193.837,101.861,191.249,95.94,187.784z"/>
	<path fill="#00B8E2" d="M97.99,239.436c-6.599-1.762-12.657-4.857-17.865-8.971c-0.744-0.588-1.471-1.197-2.179-1.824
		c1.028,4.68,2.468,9.201,4.266,13.539c0.366,0.883,0.742,1.762,1.137,2.629h0l0,0c2.949,1.33,6.026,2.43,9.211,3.268
		c2.192-2.27,4.247-4.654,6.166-7.152C98.476,240.43,98.228,239.936,97.99,239.436z"/>
	<path fill="#D7EFF6" d="M111.1,257.791c-2.478-2.445-4.771-5.096-6.837-7.9c-2.073-2.828-3.931-5.826-5.537-8.967
		c-1.918,2.498-3.974,4.883-6.165,7.152H92.56h0c-1.6,1.646-3.263,3.221-4.99,4.734c0.047,0.082,0.1,0.168,0.157,0.25
		c7.843,2.682,16.015,4.629,24.446,5.766C111.812,258.484,111.454,258.139,111.1,257.791z"/>
	<path fill="#E8F5F5" d="M132.024,219.477c-0.324-1.779-0.62-3.568-0.882-5.369c-0.429-2.941-0.772-5.912-1.032-8.908
		c-0.176-2.037-0.315-4.084-0.413-6.143c-0.032-0.675-0.06-1.352-0.083-2.029c-0.001-0.029-0.003-0.061-0.004-0.091
		c-4.925-0.008-9.73-0.556-14.347-1.574c-0.021,0.491-0.047,0.98-0.078,1.47c-0.01,0.17-0.023,0.339-0.035,0.509
		c-0.002,0.038-0.005,0.077-0.008,0.115c-0.019,0.277-0.038,0.554-0.06,0.83c-0.017,0.212-0.036,0.424-0.054,0.636
		c-0.023,0.268-0.047,0.535-0.073,0.802c-0.023,0.238-0.048,0.475-0.073,0.713c-0.025,0.234-0.05,0.469-0.077,0.702
		c-0.03,0.261-0.061,0.521-0.093,0.779c-0.025,0.203-0.052,0.406-0.079,0.608c-0.038,0.285-0.076,0.57-0.117,0.855
		c-0.022,0.158-0.046,0.316-0.07,0.475c-0.048,0.324-0.097,0.65-0.15,0.973c-0.011,0.068-0.023,0.137-0.034,0.203
		c-0.648,3.943-1.581,7.791-2.778,11.52c-0.994,3.096-2.17,6.109-3.515,9.029c-2.003,4.35-4.381,8.492-7.094,12.383
		c-0.078,0.113-0.157,0.227-0.236,0.34c-0.36,0.51-0.724,1.02-1.095,1.521c3.616,0.84,7.384,1.277,11.247,1.277
		c0.575,0,1.147-0.01,1.717-0.029c0.125-0.004,0.248-0.014,0.372-0.02c0.448-0.018,0.896-0.039,1.341-0.068
		c0.11-0.008,0.218-0.02,0.328-0.027c0.46-0.035,0.92-0.074,1.377-0.121c0.083-0.008,0.164-0.02,0.247-0.029
		c0.484-0.053,0.968-0.109,1.448-0.176c0.051-0.008,0.102-0.016,0.153-0.023c0.511-0.072,1.021-0.152,1.526-0.24
		c0.026-0.004,0.052-0.01,0.079-0.014c0.529-0.094,1.057-0.193,1.58-0.305c0.011-0.002,0.022-0.004,0.033-0.006
		c0.537-0.113,1.07-0.234,1.601-0.365l0.021-0.006c0.529-0.131,1.056-0.27,1.578-0.416c0.006-0.002,0.011-0.004,0.017-0.004
		c0.037-0.012,0.073-0.021,0.11-0.033c0.394-0.111,0.788-0.227,1.178-0.348c0.002,0,0.004,0,0.006-0.002
		c0.083-0.025,0.164-0.053,0.246-0.08c0.629-0.199,1.252-0.412,1.871-0.637c0.192-0.07,0.386-0.139,0.578-0.211
		c0.251-0.094,0.5-0.193,0.748-0.291c0.217-0.086,0.434-0.172,0.649-0.26c0.232-0.096,0.463-0.195,0.694-0.295
		c0.232-0.1,0.465-0.201,0.695-0.305c0.214-0.096,0.427-0.193,0.639-0.291c0.252-0.117,0.502-0.238,0.752-0.359
		c0.189-0.092,0.381-0.186,0.57-0.279c0.285-0.145,0.567-0.291,0.85-0.441c0.152-0.08,0.305-0.156,0.455-0.238
		c0.434-0.234,0.863-0.475,1.289-0.721C134.123,229.561,132.951,224.561,132.024,219.477z"/>
	<path fill="#DFF2F7" d="M165.604,189.864c-0.008-0.248-0.021-0.494-0.031-0.74c-0.033-0.771-0.075-1.542-0.143-2.306
		c-1.729,1.08-3.507,2.076-5.321,2.991c-2.092,1.055-4.233,2.001-6.419,2.827c-3.034,1.165-6.154,2.098-9.327,2.8l-0.003,0.006
		c0-0.001,0-0.004,0.002-0.005c-1.322,0.299-2.656,0.546-4,0.766c-0.474,0.747-0.938,1.505-1.396,2.269
		c-0.983,1.637-1.934,3.305-2.84,5.001c-1.867,3.494-3.521,7.045-4.983,10.635c0.262,1.801,0.558,3.59,0.882,5.369
		c0.927,5.084,2.099,10.084,3.514,14.984c0.291,1.004,0.596,1.998,0.904,2.992c0.302,0.965,0.611,1.924,0.93,2.883
		c0.123,0.373,0.24,0.75,0.365,1.125c0.523-0.32,1.042-0.648,1.555-0.982c15.882-10.398,26.367-28.328,26.354-48.715
		C165.646,191.129,165.625,190.497,165.604,189.864z"/>
	<path fill="#E1F4FD" d="M135.538,234.461c-0.426,0.246-0.855,0.486-1.289,0.721c-0.15,0.082-0.303,0.158-0.455,0.238
		c-0.282,0.15-0.564,0.297-0.85,0.441c-0.189,0.094-0.381,0.188-0.57,0.279c-0.25,0.121-0.5,0.242-0.752,0.359
		c-0.212,0.098-0.425,0.195-0.639,0.291c-0.23,0.104-0.463,0.205-0.695,0.305c-0.23,0.1-0.461,0.199-0.694,0.295
		c-0.215,0.088-0.432,0.174-0.649,0.26c-0.249,0.098-0.497,0.197-0.748,0.291c-0.191,0.072-0.385,0.141-0.578,0.211
		c-0.618,0.225-1.241,0.438-1.871,0.637c-0.083,0.027-0.164,0.055-0.246,0.082c-0.002,0-0.004,0-0.006,0
		c-0.391,0.123-0.784,0.236-1.178,0.348c-0.037,0.012-0.073,0.021-0.11,0.033c-0.005,0.002-0.011,0.002-0.017,0.004
		c-0.522,0.146-1.049,0.285-1.578,0.416c-0.007,0.002-0.014,0.004-0.021,0.006c-0.53,0.129-1.064,0.252-1.601,0.365
		c-0.011,0.002-0.021,0.004-0.033,0.006c-0.523,0.109-1.05,0.211-1.58,0.305c-0.026,0.004-0.052,0.01-0.079,0.014
		c-0.506,0.088-1.015,0.168-1.526,0.24c-0.051,0.008-0.102,0.016-0.153,0.023c-0.48,0.066-0.964,0.123-1.448,0.176
		c-0.083,0.01-0.164,0.021-0.247,0.029c-0.457,0.047-0.917,0.086-1.377,0.121c-0.109,0.008-0.218,0.02-0.328,0.027
		c-0.445,0.029-0.893,0.051-1.341,0.068c-0.125,0.006-0.248,0.016-0.372,0.02c-0.57,0.02-1.142,0.029-1.717,0.029
		c-3.863,0-7.631-0.438-11.247-1.277c-0.267,0.371-0.541,0.738-0.819,1.1c1.605,3.141,3.464,6.139,5.537,8.967c0,0,0.001,0,0.001,0
		l0,0c1.032,0.051,2.07,0.076,3.106,0.076h0.042c11.107,0,21.496-3.119,30.325-8.506c-0.45-1.332-0.879-2.668-1.295-4.008
		C136.132,236.461,135.829,235.465,135.538,234.461z"/>
	<path fill="#D9F1FD" d="M107.412,249.967h-0.042c-1.036,0-2.076-0.025-3.106-0.076c2.065,2.805,4.358,5.455,6.836,7.9
		c0.354,0.348,0.712,0.693,1.073,1.035c5.779,0.779,11.663,1.188,17.645,1.188h0.035c5.144-0.006,10.203-0.301,15.191-0.887
		c-2.785-5.699-5.229-11.602-7.307-17.666C128.908,246.848,118.521,249.967,107.412,249.967z"/>
	<path fill="#CED7DE" d="M173.28,183.684c-1.03,0.838-2.086,1.646-3.164,2.425c-0.094,1.875-0.144,3.764-0.144,5.654
		c0.011,16.565,3.63,32.29,10.101,46.424c-4.536-14.67-6.981-30.262-6.996-46.424C173.077,189.056,173.146,186.362,173.28,183.684z"
		/>
	<path fill="#CBCDCF" d="M189.389,164.874c-2.303,3.952-4.989,7.652-8.007,11.052c-2.484,2.8-5.194,5.396-8.102,7.758
		c-0.134,2.678-0.203,5.372-0.203,8.079c0.015,16.163,2.46,31.754,6.996,46.424c0.514,1.113,1.05,2.213,1.597,3.307
		c0.364,0.729,0.73,1.457,1.107,2.18c0.001,0,0.001-0.002,0.001-0.002c0,0.002,0,0.004,0,0.004s0.101,0.186,0.1,0.184
		c0.188-0.48,0.433-1.252,0.664-1.951c2.447-7.268,4.375-14.766,5.743-22.473c1.586-8.977,2.41-18.225,2.41-27.672
		C191.691,182.591,190.9,173.616,189.389,164.874z"/>
	<path fill="#115E6A" d="M205.627,206.092c-0.848-4.65-1.307-9.447-1.307-14.339s0.444-9.68,1.297-14.333
		c-0.255-1.677-0.554-3.338-0.894-4.985c-0.571-2.779-1.261-5.501-2.07-8.186c-2.845-2.747-5.938-5.24-9.247-7.445
		c-1.165,2.789-2.51,5.483-4.018,8.071c1.513,8.742,2.305,17.717,2.307,26.889c0,9.45-0.824,18.696-2.41,27.672
		c-1.368,7.707-3.296,15.205-5.743,22.473c-0.214,0.652-0.434,1.311-0.664,1.951c0.689,1.316,1.417,2.615,2.164,3.9
		c1.844-0.861,3.667-1.77,5.468-2.717c6.793-10.123,11.702-21.596,14.229-33.953c-0.022-0.146-0.039-0.293-0.062-0.441
		c0.022,0.148,0.043,0.295,0.065,0.441C205.081,209.439,205.372,207.768,205.627,206.092z"/>
	<path fill="#006F96" d="M217.755,186.501c1.104,2.68,2.026,5.448,2.76,8.291c0.03-1.017,0.038-2.021,0.038-3.04
		c0-13.319-2.315-26.094-6.565-37.966c-1.651,3.02-3.1,6.137-4.349,9.366C213.163,170.525,215.903,178.344,217.755,186.501z"/>
	<path fill="#005E85" d="M205.617,177.419c-0.853,4.654-1.291,9.441-1.291,14.333s0.453,9.689,1.301,14.339
		c0.697-4.68,1.07-9.471,1.062-14.339C206.689,186.882,206.317,182.099,205.617,177.419z"/>
	<path fill="#116B65" d="M202.653,164.246c0.81,2.687,1.499,5.409,2.07,8.187c0.261-1.72,0.557-3.443,0.894-5.141
		C204.662,166.251,203.672,165.238,202.653,164.246z"/>
	<path fill="#006F71" d="M205.618,167.292L205.618,167.292c-0.338,1.697-0.634,3.42-0.895,5.142c0.34,1.647,0.639,3.309,0.894,4.985
		c0.49-2.699,1.121-5.352,1.879-7.956c-0.608-0.739-1.238-1.458-1.879-2.168C205.617,167.293,205.618,167.293,205.618,167.292z"/>
	<path fill="#006E7A" d="M213.898,153.54c-0.004-0.003-0.007-0.006-0.011-0.009c0.001,0,0.002,0,0.003,0
		c-0.784-2.182-1.639-4.333-2.551-6.454c-0.383,1.017-0.756,2.039-1.112,3.072l-0.002,0.01c-0.999,2.892-1.903,5.834-2.699,8.815
		c0.735,1.376,1.439,2.772,2.112,4.18c1.249-3.232,2.697-6.347,4.349-9.366C213.957,153.703,213.924,153.621,213.898,153.54z"/>
	<path fill="#006E65" d="M207.526,158.973c-0.723,2.734-1.362,5.514-1.908,8.319c0.641,0.714,1.27,1.432,1.878,2.171
		c0.628-2.146,1.343-4.253,2.143-6.31C208.966,161.746,208.262,160.351,207.526,158.973z"/>
	<path fill="#006E7C" d="M207.496,169.463c4.235,5.087,7.719,10.827,10.259,17.039c-1.852-8.157-4.592-15.974-8.116-23.349
		C208.839,165.212,208.124,167.32,207.496,169.463z"/>
	<path fill="#00709F" d="M220.122,201.787c0.199-2.316,0.336-4.644,0.393-6.994c-0.733-2.843-1.655-5.611-2.76-8.291
		C218.883,191.474,219.677,196.58,220.122,201.787z"/>
	<path fill="#D5EEF4" d="M181.67,241.494c-0.548-1.094-1.083-2.193-1.597-3.307c-6.471-14.135-10.09-29.859-10.101-46.424
		c0-1.891,0.05-3.779,0.144-5.654c-1.361,0.981-2.76,1.914-4.192,2.796c-0.104,0.313-0.207,0.627-0.312,0.94
		c0.021,0.639,0.034,1.277,0.034,1.918c0.016,20.387-10.472,38.317-26.354,48.715c-0.513,0.334-1.031,0.662-1.555,0.982
		c2.078,6.064,4.521,11.967,7.307,17.666c12.054-1.396,23.602-4.451,34.418-8.91c1.008-1.785,1.951-3.598,2.814-5.449
		c0.177-0.363,0.332-0.729,0.5-1.092C182.401,242.953,182.034,242.225,181.67,241.494z"/>
	<path fill="#008C9E" d="M214.046,153.682c-0.021,0.036-0.042,0.074-0.056,0.104c-0.001,0-0.001-0.001-0.001-0.001
		c-0.001,0-0.001,0.001-0.002,0.001c4.25,11.872,6.565,24.646,6.565,37.966c0,1.02-0.006,2.023-0.038,3.04
		c-0.057,2.351-0.193,4.678-0.393,6.994c-0.833,9.411-2.814,18.51-5.811,27.114c1.879-1.602,3.706-3.246,5.492-4.959
		c0.639-0.602,1.276-1.225,1.899-1.852c5.928-5.902,11.293-12.359,15.995-19.307C235.707,183.648,227.033,166.496,214.046,153.682z"
		/>
</g>
<g>
	<g>
		<path fill="#4D4D4D" d="M63.63,312.147h3.075l-15.804-36.544h-1.169l-15.804,36.544h3.077l5.357-12.624h15.911L63.63,312.147z
			 M43.372,297.085l6.945-16.442l6.95,16.442H43.372z"/>
		<path fill="#4D4D4D" d="M77.02,312.624c3.288,0,5.993-1.378,8.272-4.189v3.713h2.652v-23.922h-2.652v16.974
			c-2.013,3.343-4.718,4.982-8.006,4.982c-4.139,0-6.101-2.807-6.101-8.535v-13.421h-2.652v14.693
			C68.533,309.178,71.608,312.624,77.02,312.624z"/>
		<path fill="#4D4D4D" d="M107.533,305.834c0-3.657-2.069-5.195-6.313-6.681c-3.975-1.378-5.937-2.545-5.937-4.932
			c0-2.388,2.014-4.086,4.877-4.086c2.068,0,4.296,0.797,6.682,2.334v-2.756c-2.279-1.328-4.403-2.02-6.523-2.02
			c-4.455,0-7.583,2.705-7.583,6.579c0,3.022,1.748,5.198,5.305,6.575c3.973,1.594,6.73,1.914,6.73,5.251
			c0,2.544-1.854,4.082-4.927,4.082c-2.441,0-4.774-0.791-7.163-2.382v2.755c2.23,1.431,4.456,2.122,6.948,2.122
			C104.614,312.677,107.533,310.026,107.533,305.834z"/>
		<path fill="#4D4D4D" d="M114.06,306.207c0,4.512,1.273,6.417,5.41,6.417c1.434,0,2.864-0.318,4.347-1.008v-2.598
			c-1.483,0.794-2.756,1.22-3.973,1.22c-2.605,0-3.026-1.165-3.026-3.979v-15.808h6.417v-2.226h-6.417v-7.793h-0.639l-2.014,2.33
			v5.463h-5.197v2.226h5.092V306.207z"/>
		<path fill="#4D4D4D" d="M129.499,297.033c2.592-4.349,4.714-6.582,6.998-6.582c1.166,0,2.334,0.589,3.713,1.697l1.434-2.546
			c-1.382-1.164-2.707-1.802-4.245-1.802c-2.863,0-5.144,2.124-7.899,6.312v-5.888h-2.653v23.922h2.653V297.033z"/>
		<path fill="#4D4D4D" d="M142.677,306.524c0,3.606,2.649,6.152,6.63,6.152c2.649,0,4.827-0.95,7.322-2.864
			c0.102,1.967,0.742,2.812,2.275,2.812c1.009,0,2.336-0.741,3.875-2.177v-2.437c-1.274,1.114-1.963,1.857-2.708,1.857
			c-0.58,0-0.845-0.478-0.845-1.541V295.81c0-5.568-2.177-8.115-7.796-8.115c-2.498,0-4.936,0.904-7.531,2.654v2.598
			c2.596-1.906,4.878-2.918,7.317-2.918c3.767,0,5.356,1.591,5.356,5.145v2.551C147.451,298.093,142.677,301.327,142.677,306.524z
			 M156.573,307.322c-2.387,2.014-4.455,3.073-6.524,3.073c-2.916,0-4.666-1.535-4.666-3.976c0-3.714,3.979-6.473,11.19-6.579
			V307.322z"/>
		<rect x="166.104" y="275.921" fill="#4D4D4D" width="2.706" height="36.227"/>
		<rect x="174.918" y="288.226" fill="#4D4D4D" width="2.705" height="23.922"/>
		<rect x="174.918" y="275.921" fill="#4D4D4D" width="2.705" height="4.401"/>
		<path fill="#4D4D4D" d="M182,306.524c0,3.606,2.649,6.152,6.627,6.152c2.652,0,4.827-0.95,7.32-2.864
			c0.107,1.967,0.742,2.812,2.281,2.812c1.005,0,2.332-0.741,3.874-2.177v-2.437c-1.275,1.114-1.961,1.857-2.706,1.857
			c-0.587,0-0.853-0.478-0.853-1.541V295.81c0-5.568-2.174-8.115-7.795-8.115c-2.49,0-4.934,0.904-7.53,2.654v2.598
			c2.597-1.906,4.877-2.918,7.316-2.918c3.772,0,5.361,1.591,5.361,5.145v2.551C186.769,298.093,182,301.327,182,306.524z
			 M195.896,307.322c-2.388,2.014-4.46,3.073-6.526,3.073c-2.916,0-4.67-1.535-4.67-3.976c0-3.714,3.98-6.473,11.196-6.579V307.322z
			"/>
		<path fill="#4D4D4D" d="M222.109,298.835v13.312h2.654v-14.585c0-6.261-3.077-9.762-8.485-9.762c-3.291,0-5.996,1.433-8.273,4.244
			v-3.819h-2.655v23.922h2.655v-16.866c2.013-3.343,4.72-5.039,8.008-5.039C220.147,290.242,222.109,293.105,222.109,298.835z"/>
	</g>
	<g>
		<path fill="#0088B2" d="M88.109,338.558c0-5.997-2.706-11.457-7.214-14.797c-3.394-2.494-7.265-3.289-12.306-3.289h-12.57v36.222
			h12.57c5.091,0,9.017-0.897,12.306-3.341C85.403,350.015,88.109,344.549,88.109,338.558z M78.455,351.71
			c-2.599,1.752-6.045,2.438-10.607,2.438h-8.751v-31.079h8.751c4.562,0,8.008,0.691,10.607,2.438
			c4.031,2.708,6.471,7.585,6.471,13.103C84.925,344.125,82.485,349.008,78.455,351.71z"/>
		<rect x="93.838" y="320.472" fill="#0088B2" width="2.706" height="4.401"/>
		<rect x="93.838" y="332.775" fill="#0088B2" width="2.706" height="23.918"/>
		<path fill="#0088B2" d="M100.921,351.074c0,3.606,2.65,6.152,6.629,6.152c2.65,0,4.828-0.953,7.317-2.863
			c0.107,1.961,0.743,2.812,2.283,2.812c1.008,0,2.333-0.744,3.872-2.178v-2.438c-1.275,1.112-1.961,1.859-2.704,1.859
			c-0.583,0-0.852-0.48-0.852-1.541v-12.517c0-5.569-2.171-8.119-7.797-8.119c-2.491,0-4.933,0.905-7.53,2.654v2.601
			c2.597-1.906,4.88-2.92,7.322-2.92c3.766,0,5.354,1.592,5.354,5.144v2.551C105.691,342.643,100.921,345.876,100.921,351.074z
			 M114.816,351.869c-2.383,2.015-4.452,3.078-6.521,3.078c-2.92,0-4.669-1.542-4.669-3.979c0-3.714,3.976-6.471,11.19-6.578
			V351.869z"/>
		<path fill="#0088B2" d="M145.44,344.022c0-7.007-4.294-11.831-10.178-11.831c-3.288,0-5.888,1.168-8.436,3.662v-15.382h-2.542
			v34.844c2.859,1.22,5.462,1.86,8.063,1.86C140.088,357.176,145.44,351.869,145.44,344.022z M126.827,338.926
			c2.228-2.863,4.724-4.24,7.532-4.24c4.562,0,8.061,3.82,8.061,9.496c0,6.15-4.032,10.34-9.758,10.34
			c-2.385,0-4.352-0.638-5.835-1.91V338.926z"/>
		<path fill="#0088B2" d="M170.173,343.862v-0.11c0-6.998-4.241-11.454-10.339-11.454c-6.635,0-11.139,4.774-11.139,12.043
			c0,7.795,4.719,12.886,11.878,12.886c3.185,0,6.099-1.061,9.124-3.181v-2.919c-3.073,2.335-5.891,3.503-9.175,3.503
			c-5.198,0-9.019-4.089-9.019-10.505v-0.263H170.173z M159.619,334.577c3.817,0,6.846,2.705,7.424,7.002h-15.219
			C152.46,337.338,155.747,334.577,159.619,334.577z"/>
		<path fill="#0088B2" d="M175.822,350.758c0,4.506,1.275,6.418,5.409,6.418c1.432,0,2.866-0.322,4.351-1.01v-2.596
			c-1.484,0.793-2.76,1.218-3.98,1.218c-2.599,0-3.021-1.168-3.021-3.978v-15.808h6.416v-2.228h-6.416v-7.795h-0.639l-2.014,2.334
			v5.461h-5.196v2.228h5.09V350.758z"/>
		<path fill="#0088B2" d="M207.424,354.046v-2.919c-3.073,2.335-5.887,3.503-9.174,3.503c-5.196,0-9.018-4.089-9.018-10.505v-0.263
			h18.669v-0.11c0-6.998-4.243-11.454-10.344-11.454c-6.629,0-11.139,4.774-11.139,12.043c0,7.795,4.724,12.886,11.883,12.886
			C201.482,357.227,204.4,356.166,207.424,354.046z M197.35,334.577c3.814,0,6.837,2.705,7.423,7.002h-15.22
			C190.186,337.338,193.476,334.577,197.35,334.577z"/>
		<path fill="#0088B2" d="M226.086,350.388c0-3.661-2.066-5.201-6.311-6.688c-3.978-1.377-5.94-2.545-5.94-4.929
			c0-2.386,2.011-4.086,4.882-4.086c2.067,0,4.295,0.794,6.682,2.331v-2.758c-2.281-1.324-4.404-2.017-6.525-2.017
			c-4.453,0-7.585,2.709-7.585,6.581c0,3.021,1.751,5.199,5.306,6.576c3.979,1.594,6.734,1.907,6.734,5.251
			c0,2.545-1.854,4.086-4.932,4.086c-2.442,0-4.775-0.798-7.161-2.392v2.761c2.228,1.43,4.453,2.121,6.946,2.121
			C223.169,357.227,226.086,354.574,226.086,350.388z"/>
	</g>
	<path fill="#0088B2" d="M88.264,370.534c-3.553,3.451-5.569,8.225-5.569,13.101c0,6.418,3.079,12.201,8.379,15.648
		c3.239,2.12,7.003,3.237,11.193,3.237s8.378-1.117,12.678-3.346v-3.072c-4.722,2.494-8.861,3.819-12.783,3.819
		c-4.614,0-8.753-1.7-11.67-4.722c-2.916-3.021-4.612-7.16-4.612-11.457c0-5.516,2.6-10.397,7.105-13.419
		c2.652-1.752,5.729-2.704,9.177-2.704c3.979,0,8.113,1.325,12.783,3.816v-3.02c-4.401-2.227-8.594-3.396-12.678-3.396
		C96.804,365.021,91.978,366.932,88.264,370.534z"/>
	<path fill="#0088B2" d="M129.532,377.433c-7,0-12.468,5.568-12.468,12.463c0,7.002,5.519,12.465,12.468,12.465
		c3.338,0,6.361-1.219,8.751-3.605c2.332-2.335,3.71-5.568,3.71-8.859C141.993,382.949,136.422,377.433,129.532,377.433z
		 M129.532,399.922c-5.202,0-9.548-4.349-9.548-9.972c0-5.622,4.24-10.024,9.548-10.024c5.249,0,9.49,4.402,9.49,10.024
		C139.022,395.521,134.781,399.922,129.532,399.922z"/>
	<path fill="#0088B2" d="M162.053,394.935c-2.013,3.344-4.717,4.987-8.005,4.987c-4.138,0-6.1-2.812-6.1-8.542v-13.418h-2.654
		v14.692c0,6.26,3.078,9.706,8.488,9.706c3.287,0,5.993-1.378,8.271-4.193v3.717h2.655v-23.922h-2.655V394.935z"/>
	<path fill="#0088B2" d="M178.935,377.541c-3.286,0-5.994,1.429-8.275,4.24v-3.819h-2.65v23.922h2.65v-16.866
		c2.02-3.344,4.723-5.04,8.01-5.04c4.14,0,6.1,2.863,6.1,8.591v13.315h2.649v-14.586
		C187.418,381.039,184.347,377.541,178.935,377.541z"/>
	<path fill="#0088B2" d="M193.789,389.95c0-5.622,4.238-10.024,9.542-10.024c2.071,0,3.874,0.477,5.729,1.538v-2.972
		c-1.747-0.689-3.499-1.06-5.355-1.06c-7.532,0-12.836,5.568-12.836,12.463c0,7.266,5.253,12.465,12.624,12.465
		c2.125,0,4.087-0.477,6.049-1.429v-2.975c-2.177,1.326-4.246,1.965-6.21,1.965C198.027,399.922,193.789,395.625,193.789,389.95z"/>
	<g>
		<rect x="212.976" y="365.657" fill="#0088B2" width="2.705" height="4.401"/>
		<rect x="212.976" y="377.962" fill="#0088B2" width="2.705" height="23.923"/>
	</g>
	<rect x="221.79" y="365.657" fill="#0088B2" width="2.707" height="36.228"/>
</g>
</svg>
